# xmcd
#
# Track frame offsets: 
#        150
#        23550
#        45750
#        59550
#        80794
#        98179
#        124729
#        140384
#        164534
#        190239
#        205764
#        220314
#        236514
#        259386
#        279711
#        300336
#
# Disc length: 4266 seconds
#
# Revision: 0
# Processed by: cddbd v1.5.2PL0 Copyright (c) Steve Scherf et al.
# Submitted via: ExactAudioCopy v0.99pb3
#
DISCID=e310a810
DTITLE=Dave Sadler - Fade To Blue
DYEAR=2008
DGENRE=Blues
TTITLE0=Ain't Got Time
TTITLE1=Fade To Blue
TTITLE2=Shackles And Chains
TTITLE3=Killing Game
TTITLE4=Can't Take It With You
TTITLE5=Every Child
TTITLE6=Wrong Turn
TTITLE7=Girl From Little Rock
TTITLE8=Cold Wind Blowin'
TTITLE9=Blues Night Special
TTITLE10=On Highway 49
TTITLE11=Blind Side
TTITLE12=Rise Above
TTITLE13=Must Change
TTITLE14=Takedown
TTITLE15=Blue Reggae
EXTD=
EXTT0=
EXTT1=
EXTT2=
EXTT3=
EXTT4=
EXTT5=
EXTT6=
EXTT7=
EXTT8=
EXTT9=
EXTT10=
EXTT11=
EXTT12=
EXTT13=
EXTT14=
EXTT15=
PLAYORDER=
